{"title":"The Tourist 2010 720p BRRip.x264.Feel-Free","uid":6189775,"size":2514997205,"categoryP":"video","categoryS":"hd___movies","magnet":"?xt=urn:btih:f772b0d9e8faf94289bea9738ac339e492a0b5fe&amp;dn=The+Tourist+2010+720p+BRRip.x264.Feel-Free&amp;tr=udp%3A%2F%2Ftracker.openbittorrent.com%3A80&amp;tr=udp%3A%2F%2Fopen.demonii.com%3A1337&amp;tr=udp%3A%2F%2Ftracker.coppersurfer.tk%3A6969&amp;tr=udp%3A%2F%2Fexodus.desync.com%3A6969","seeders":0,"leechers":0,"uploader":"neon","files":-1,"time":1298237525,"description":"Genre:Action | Drama | Thriller\nLanguage:English\n &lt;a href=&quot; http://www.imdb.com/title/tt1243957/&quot; rel=&quot;nofollow&quot; target=&quot;_NEW&quot;&gt; http://www.imdb.com/title/tt1243957/&lt;/a&gt;\nSource:BluRay.720p.x264.DTS.MySiLU\nSubtitles:Romana\n\n\nFormat : MPEG-4\nFormat profile : Base Media\nCodec ID : isom\nFile size : 2.34 GiB\nDuration : 1h 43mn\nOverall bit rate : 3 232 Kbps\n\n\nVideo\nFormat profile : &lt;a class=&quot;__cf_email__&quot; href=&quot;/cdn-cgi/l/email-protection&quot; data-cfemail=&quot;470f2e202f070b736976&quot;&gt;[email&amp;#160;protected]&lt;/a&gt;&lt;script cf-hash='f9e31' type=&quot;text/javascript&quot;&gt;\n/* &lt;![CDATA[ */!function(){try{var t=&quot;currentScript&quot;in document?document.currentScript:function(){for(var t=document.getElementsByTagName(&quot;script&quot;),e=t.length;e--;)if(t[e].getAttribute(&quot;cf-hash&quot;))return t[e]}();if(t&amp;&amp;t.previousSibling){var e,r,n,i,c=t.previousSibling,a=c.getAttribute(&quot;data-cfemail&quot;);if(a){for(e=&quot;&quot;,r=parseInt(a.substr(0,2),16),n=2;a.length-n;n+=2)i=parseInt(a.substr(n,2),16)^r,e+=String.fromCharCode(i);e=document.createTextNode(e),c.parentNode.replaceChild(e,c)}}}catch(u){}}();/* ]]&gt; */&lt;/script&gt;\nFormat settings, CABAC : Yes\nFormat settings, ReFrames : 3 frames\nCodec ID : avc1\nCodec ID/Info : Advanced Video Coding\nDuration : 1h 43mn\nBit rate mode : Variable\nBit rate : 2 821 Kbps\nMaximum bit rate : 11.6 Mbps\nWidth : 1 280 pixels\nHeight : 544 pixels\nDisplay aspect ratio : 2.35:1\nFrame rate mode : Constant\nFrame rate : 23.976 fps\nColor space : YUV\nChroma subsampling : 4:2:0\nBit depth : 8 bits\nScan type : Progressive\nBits/(Pixel*Frame) : 0.169\nStream size : 2.01 GiB (86%)\nWriting library : x264\n\n\nAudio\nID : 2\nFormat : AAC\nFormat/Info : Advanced Audio Codec\nFormat version : Version 4\nFormat profile : LC\nFormat settings, SBR : No\nCodec ID : 40\nDuration : 1h 43mn\nBit rate mode : Variable\nBit rate : 444 Kbps\nMaximum bit rate : 533 Kbps\nChannel(s) : 6 channels\nChannel positions : Front: L C R, Side: L R, LFE\nSampling rate : 48.0 KHz\nStream size : 328 MiB (14%)\n\n\nPlot:\nRevolves around Frank, an American tourist visiting Italy to mend a broken heart. Elise is an extraordinary woman who deliberately crosses his path\n &lt;a href=&quot;\nhttp://www.postimg.com/29000/28582.jpg&quot; rel=&quot;nofollow&quot; target=&quot;_NEW&quot;&gt;\nhttp://www.postimg.com/29000/28582.jpg&lt;/a&gt; &lt;a href=&quot;\nhttp://www.postimg.com/29000/28583.jpg&quot; rel=&quot;nofollow&quot; target=&quot;_NEW&quot;&gt;\nhttp://www.postimg.com/29000/28583.jpg&lt;/a&gt; &lt;a href=&quot;\nhttp://www.postimg.com/29000/28584.jpg&quot; rel=&quot;nofollow&quot; target=&quot;_NEW&quot;&gt;\nhttp://www.postimg.com/29000/28584.jpg&lt;/a&gt; &lt;a href=&quot;\nhttp://www.postimg.com/29000/28585.jpg&quot; rel=&quot;nofollow&quot; target=&quot;_NEW&quot;&gt;\nhttp://www.postimg.com/29000/28585.jpg&lt;/a&gt; &lt;a href=&quot;\nhttp://www.postimg.com/29000/28588.jpg&quot; rel=&quot;nofollow&quot; target=&quot;_NEW&quot;&gt;\nhttp://www.postimg.com/29000/28588.jpg&lt;/a&gt; &lt;a href=&quot;\nhttp://www.postimg.com/29000/28587.jpg&quot; rel=&quot;nofollow&quot; target=&quot;_NEW&quot;&gt;\nhttp://www.postimg.com/29000/28587.jpg&lt;/a&gt;","torrent":{"xt":"urn:btih:f772b0d9e8faf94289bea9738ac339e492a0b5fe","amp;dn":"The+Tourist+2010+720p+BRRip.x264.Feel-Free","amp;tr":["udp%3A%2F%2Ftracker.openbittorrent.com%3A80","udp%3A%2F%2Fopen.demonii.com%3A1337","udp%3A%2F%2Ftracker.coppersurfer.tk%3A6969","udp%3A%2F%2Fexodus.desync.com%3A6969"],"infoHash":"f772b0d9e8faf94289bea9738ac339e492a0b5fe","infoHashBuffer":{"type":"Buffer","data":[247,114,176,217,232,250,249,66,137,190,169,115,138,195,57,228,146,160,181,254]},"announce":[],"urlList":[]}}